<svg id="d8dc8a44-ed9a-40f0-9ada-4c1b98dd91f8" data-name="Layer 1" xmlns="http://www.w3.org/2000/svg" viewBox="0 0 228 182"><title>agt-logo</title><path d="M100.6,46.3a.55.55,0,0,0-.39-.16h-4.7a.55.55,0,1,0,0,1.09H100l7.19,7.19v6.73h1.09v-7a.54.54,0,0,0-.16-.39Z" fill="#d8d7d6"/><path d="M103.79,41.34V36.76a.55.55,0,0,0-1.09,0v4.81a.54.54,0,0,0,.16.39l9.5,9.5v9.69h1.09V51.23a.54.54,0,0,0-.16-.39Z" fill="#d8d7d6"/><path d="M112.72,44.53V24.74a.54.54,0,0,0-.16-.39L101.37,13.16a.55.55,0,0,0-.77.77l11,11V44.75a.55.55,0,0,0,.16.39l5.76,5.76V61.15h1.09V50.67a.54.54,0,0,0-.16-.39Z" fill="#d8d7d6"/><path d="M119.59,20.68a.55.55,0,0,0-.77.77l3.91,3.91V61.15h1.09v-36a.55.55,0,0,0-.16-.39Z" fill="#d8d7d6"/><path d="M156.23,46.14h-4.7a.54.54,0,0,0-.39.16l-7.51,7.51a.54.54,0,0,0-.16.39v7h1.09V54.42l7.19-7.19h4.48a.55.55,0,0,0,0-1.09Z" fill="#d8d7d6"/><path d="M149,41.57V36.76a.55.55,0,1,0-1.09,0v4.59l-9.5,9.5a.54.54,0,0,0-.16.39v9.92h1.09V51.46l9.5-9.5A.54.54,0,0,0,149,41.57Z" fill="#d8d7d6"/><path d="M140.11,44.75V25l11-11a.55.55,0,1,0-.77-.77L139.17,24.35a.54.54,0,0,0-.16.39V44.53l-5.76,5.76a.55.55,0,0,0-.16.39V61.15h1.09V50.9l5.76-5.76A.55.55,0,0,0,140.11,44.75Z" fill="#d8d7d6"/><path d="M132.15,20.68l-4.07,4.07a.54.54,0,0,0-.16.39v36H129V25.37l3.91-3.91a.55.55,0,0,0-.77-.77Z" fill="#d8d7d6"/><path d="M90,8.05a5.5,5.5,0,0,0,5.5,5.5H101l-11-11Z" fill="#8bc53f"/><path d="M95.49,2.55a5.5,5.5,0,0,1,5.5,5.5v5.5l-11-11Z" fill="#009345"/><path d="M108.2,15.57a5.5,5.5,0,0,0,5.5,5.5h5.5l-11-11Z" fill="#8bc53f"/><path d="M113.7,10.07a5.5,5.5,0,0,1,5.5,5.5v5.5l-11-11Z" fill="#009345"/><path d="M138,10.07a5.5,5.5,0,0,0-5.5,5.5v5.5l11-11Z" fill="#8bc53f"/><path d="M143.53,15.57a5.5,5.5,0,0,1-5.5,5.5h-5.5l11-11Z" fill="#009345"/><path d="M156.25,2.55a5.5,5.5,0,0,0-5.5,5.5v5.5l11-11Z" fill="#8bc53f"/><path d="M161.75,8.05a5.5,5.5,0,0,1-5.5,5.5h-5.5l11-11Z" fill="#009345"/><path d="M99.35,25.09a5.5,5.5,0,0,0,0,7.78l3.89,3.89V21.2Z" fill="#8bc53f"/><path d="M107.13,25.09a5.5,5.5,0,0,1,0,7.78l-3.89,3.89V21.2Z" fill="#009345"/><path d="M144.6,25.09a5.5,5.5,0,0,0,0,7.78l3.89,3.89V21.2Z" fill="#8bc53f"/><path d="M152.38,25.09a5.5,5.5,0,0,1,0,7.78l-3.89,3.89V21.2Z" fill="#009345"/><path d="M91.62,42.8a5.5,5.5,0,0,0-7.78,0L80,46.68H95.51Z" fill="#8bc53f"/><path d="M91.62,50.57a5.5,5.5,0,0,1-7.78,0L80,46.68H95.51Z" fill="#009345"/><path d="M167.89,42.8a5.5,5.5,0,0,0-7.78,0l-3.89,3.89h15.55Z" fill="#8bc53f"/><path d="M167.89,50.57a5.5,5.5,0,0,1-7.78,0l-3.89-3.89h15.55Z" fill="#009345"/><path d="M102.81,87a2.52,2.52,0,0,0-.41-1.37l5.71-5.71a.55.55,0,0,0,.16-.39v-14h-1.09v13.8l-5.55,5.55A2.54,2.54,0,1,0,102.81,87Zm-2.55,1.45A1.45,1.45,0,1,1,101.71,87,1.45,1.45,0,0,1,100.26,88.47Z" fill="#242d3c"/><path d="M109.6,90.63v-7l3.7-3.69a.55.55,0,0,0,.16-.39v-14h-1.09v13.8L108.66,83a.55.55,0,0,0-.16.39v7l-4.16,4.16a2.57,2.57,0,1,0,.77.77L109.44,91A.55.55,0,0,0,109.6,90.63ZM103,98.16a1.45,1.45,0,1,1,1.45-1.45A1.46,1.46,0,0,1,103,98.16Z" fill="#242d3c"/><path d="M112.65,102.44V85.76l5.82-5.83a.54.54,0,0,0,.16-.39v-14h-1.09v13.8l-5.82,5.83a.54.54,0,0,0-.16.39v16.91a2.55,2.55,0,1,0,1.09,0Zm-.55,3.94a1.45,1.45,0,1,1,1.45-1.45A1.45,1.45,0,0,1,112.1,106.38Z" fill="#242d3c"/><path d="M122.73,79.33l-2.39,2.39a.54.54,0,0,0-.16.39v4.32l-2.27,2.27a2.52,2.52,0,0,0-1.37-.41,2.55,2.55,0,1,0,2.55,2.55,2.52,2.52,0,0,0-.4-1.37L121.11,87a.54.54,0,0,0,.16-.39V82.33l2.39-2.39a.54.54,0,0,0,.16-.39v-14h-1.09Zm-6.19,13A1.45,1.45,0,1,1,118,90.84,1.45,1.45,0,0,1,116.54,92.29Z" fill="#242d3c"/><path d="M151.47,84.47a2.52,2.52,0,0,0-1.37.41l-5.55-5.55V65.52h-1.09v14a.55.55,0,0,0,.16.39l5.71,5.71a2.54,2.54,0,1,0,2.14-1.18Zm0,4a1.45,1.45,0,0,1-1-2.48h0a1.45,1.45,0,1,1,1,2.48Z" fill="#242d3c"/><path d="M148.76,94.16a2.53,2.53,0,0,0-1.37.41l-4.16-4.16v-7a.55.55,0,0,0-.16-.39l-3.7-3.69V65.52h-1.09v14a.55.55,0,0,0,.16.39l3.7,3.69v7a.55.55,0,0,0,.16.39l4.32,4.32a2.52,2.52,0,0,0-.41,1.37,2.55,2.55,0,1,0,2.55-2.55Zm0,4a1.45,1.45,0,1,1,1.45-1.45A1.46,1.46,0,0,1,148.76,98.16Z" fill="#242d3c"/><path d="M140.17,102.44V85.54a.55.55,0,0,0-.16-.39l-5.83-5.82V65.52H133.1v14a.55.55,0,0,0,.16.39l5.83,5.82v16.68a2.55,2.55,0,1,0,1.09,0Zm-.55,3.94a1.45,1.45,0,1,1,1.45-1.45A1.45,1.45,0,0,1,139.63,106.38Z" fill="#242d3c"/><path d="M135.19,88.29a2.53,2.53,0,0,0-1.37.41l-2.27-2.27V82.1a.54.54,0,0,0-.16-.39L129,79.33V65.52h-1.09v14a.54.54,0,0,0,.16.39l2.39,2.39v4.32a.55.55,0,0,0,.16.39l2.43,2.43a2.54,2.54,0,1,0,2.14-1.18Zm0,4a1.45,1.45,0,0,1-1-2.48h0a1.45,1.45,0,1,1,1,2.48Z" fill="#242d3c"/><path d="M126.59,58.43a74.23,74.23,0,0,1,13.6,1.21,45.67,45.67,0,0,1,11.69,3.75L150,72.66a72.37,72.37,0,0,0-11.38-3.43A56.48,56.48,0,0,0,126.71,68q-15.76,0-24.78,9.2t-9,26.07q0,16.24,8.52,24.93T127,136.85a59.74,59.74,0,0,0,8.2-.57,46.52,46.52,0,0,0,7.05-1.46V107.23H152.9v34.12a58.32,58.32,0,0,1-12.33,3.42,84.55,84.55,0,0,1-15,1.35A52.7,52.7,0,0,1,106.89,143a39.25,39.25,0,0,1-14-8.77A37.38,37.38,0,0,1,84.2,120.7a48.76,48.76,0,0,1-3-17.41,51.12,51.12,0,0,1,3.11-18.18,39.84,39.84,0,0,1,9-14.17,40.73,40.73,0,0,1,14.24-9.21A51.7,51.7,0,0,1,126.59,58.43Z" fill="#009345"/><path d="M86.24,134.86h-9.6l-6.23-16.44H38.65l-6.13,16.44h-9.6L50,66.85h9.19Zm-44.73-24H67.65L54.58,75.43Z" fill="#8dc63f"/><path d="M204.89,66.85v7.66h-20v60.36h-9.4V74.51h-20V66.85Z" fill="#8dc63f"/><path d="M21.74,173.1H19.93L18.76,170h-6l-1.15,3.1H9.82l5.09-12.81h1.73Zm-8.42-4.52h4.92l-2.46-6.67Z" fill="#5e5e5e"/><path d="M23.82,160.29h3.56a8.89,8.89,0,0,1,3,.48,7,7,0,0,1,2.31,1.34,5.85,5.85,0,0,1,1.48,2,6.56,6.56,0,0,1,0,5.11,5.85,5.85,0,0,1-1.48,2,6.93,6.93,0,0,1-2.31,1.34,8.86,8.86,0,0,1-3,.48H23.82Zm3.56,11.38a6.81,6.81,0,0,0,2.16-.34,5.28,5.28,0,0,0,1.76-1,4.54,4.54,0,0,0,1.18-1.56,5.36,5.36,0,0,0,0-4.22A4.49,4.49,0,0,0,31.3,163a5.28,5.28,0,0,0-1.76-1,6.81,6.81,0,0,0-2.16-.34H25.59v10Z" fill="#5e5e5e"/><path d="M44.52,160.29h1.77L41.7,173.1H39.85l-4.6-12.81H37L40.78,171Z" fill="#5e5e5e"/><path d="M49.89,173.1H48.12V160.29h1.77Z" fill="#5e5e5e"/><path d="M60.44,169.77a3,3,0,0,1-.36,1.48,3.5,3.5,0,0,1-1,1.12,4.52,4.52,0,0,1-1.42.71,6,6,0,0,1-1.76.25,9.72,9.72,0,0,1-1.89-.19,7.56,7.56,0,0,1-1.78-.58l.35-1.4a8.8,8.8,0,0,0,1.57.54,7.14,7.14,0,0,0,1.72.21,3.5,3.5,0,0,0,2-.53,1.74,1.74,0,0,0,.77-1.53,1.91,1.91,0,0,0-.22-1,2.53,2.53,0,0,0-.61-.71,4.58,4.58,0,0,0-.89-.57l-1.09-.52q-.65-.31-1.26-.64a5.35,5.35,0,0,1-1.07-.77,3.53,3.53,0,0,1-.74-1,2.78,2.78,0,0,1-.28-1.28,3.4,3.4,0,0,1,.3-1.46,2.87,2.87,0,0,1,.84-1.06,3.67,3.67,0,0,1,1.29-.63,6.07,6.07,0,0,1,1.65-.21,7.61,7.61,0,0,1,1.8.21,6.55,6.55,0,0,1,1.53.56l-.33,1.4a6.68,6.68,0,0,0-1.4-.54,6.18,6.18,0,0,0-1.6-.21q-2.33,0-2.33,1.81a2,2,0,0,0,.11.7,1.62,1.62,0,0,0,.38.56,3.13,3.13,0,0,0,.69.5q.43.24,1,.55l1.31.66a6.64,6.64,0,0,1,1.27.85,4.45,4.45,0,0,1,1,1.14A2.94,2.94,0,0,1,60.44,169.77Z" fill="#5e5e5e"/><path d="M68.27,173.33a6.33,6.33,0,0,1-2.67-.54,5.72,5.72,0,0,1-2-1.44,6.24,6.24,0,0,1-1.2-2.11,8,8,0,0,1,0-5.08,6.25,6.25,0,0,1,1.2-2.11,5.75,5.75,0,0,1,2-1.44,6.89,6.89,0,0,1,5.34,0,5.76,5.76,0,0,1,2,1.44,6.27,6.27,0,0,1,1.2,2.11,8,8,0,0,1,0,5.08,6.26,6.26,0,0,1-1.2,2.11,5.73,5.73,0,0,1-2,1.44A6.33,6.33,0,0,1,68.27,173.33Zm0-1.42a4.46,4.46,0,0,0,1.94-.4,3.88,3.88,0,0,0,1.4-1.12,5,5,0,0,0,.85-1.66,7.27,7.27,0,0,0,0-4.06,4.93,4.93,0,0,0-.85-1.65,4,4,0,0,0-1.4-1.12,4.77,4.77,0,0,0-3.88,0,4,4,0,0,0-1.4,1.12,4.93,4.93,0,0,0-.85,1.65,7.28,7.28,0,0,0,0,4.06,5,5,0,0,0,.85,1.66,3.87,3.87,0,0,0,1.4,1.12A4.45,4.45,0,0,0,68.27,171.91Z" fill="#5e5e5e"/><path d="M78.69,173.1H76.92V160.29h3.33a7.71,7.71,0,0,1,1.93.23,5.06,5.06,0,0,1,1.57.68,3.32,3.32,0,0,1,1.06,1.14,3.14,3.14,0,0,1,.38,1.57,3.4,3.4,0,0,1-.86,2.31,4.86,4.86,0,0,1-2.39,1.42l4.52,5.46H84.28l-4.17-5.15H78.69Zm4.73-9.15a1.9,1.9,0,0,0-1-1.72,3.43,3.43,0,0,0-1-.38,5.74,5.74,0,0,0-1.21-.12H78.69v4.83h.88a7,7,0,0,0,1.51-.15,4,4,0,0,0,1.22-.47,2.41,2.41,0,0,0,.82-.81A2.2,2.2,0,0,0,83.42,163.95Z" fill="#5e5e5e"/><path d="M98.43,160.06a11.25,11.25,0,0,1,2.06.18,7,7,0,0,1,1.77.57l-.29,1.4a11,11,0,0,0-1.72-.52,8.59,8.59,0,0,0-1.8-.19,5,5,0,0,0-3.75,1.39,5.4,5.4,0,0,0-1.36,3.94,4.57,4.57,0,0,0,5.15,5.09,8.93,8.93,0,0,0,1.24-.09,7,7,0,0,0,1.07-.22v-4.17h1.62v5.16a8.78,8.78,0,0,1-1.87.52,12.75,12.75,0,0,1-2.27.21,8,8,0,0,1-2.83-.47,5.94,5.94,0,0,1-2.11-1.33,5.65,5.65,0,0,1-1.32-2,7.37,7.37,0,0,1-.45-2.63A7.72,7.72,0,0,1,92,164.1,6,6,0,0,1,93.4,162a6.16,6.16,0,0,1,2.15-1.39A7.81,7.81,0,0,1,98.43,160.06Z" fill="#5e5e5e"/><path d="M107.07,173.1H105.3V160.29h3.33a7.71,7.71,0,0,1,1.93.23,5.06,5.06,0,0,1,1.57.68,3.32,3.32,0,0,1,1.06,1.14,3.14,3.14,0,0,1,.38,1.57,3.4,3.4,0,0,1-.86,2.31,4.86,4.86,0,0,1-2.39,1.42l4.52,5.46h-2.17l-4.17-5.15h-1.42Zm4.73-9.15a1.9,1.9,0,0,0-1-1.72,3.43,3.43,0,0,0-1-.38,5.74,5.74,0,0,0-1.21-.12h-1.54v4.83H108a7,7,0,0,0,1.51-.15,4,4,0,0,0,1.22-.47,2.41,2.41,0,0,0,.82-.81A2.2,2.2,0,0,0,111.8,163.95Z" fill="#5e5e5e"/><path d="M122,173.33a6.33,6.33,0,0,1-2.67-.54,5.72,5.72,0,0,1-2-1.44,6.24,6.24,0,0,1-1.2-2.11,8,8,0,0,1,0-5.08,6.25,6.25,0,0,1,1.2-2.11,5.75,5.75,0,0,1,2-1.44,6.89,6.89,0,0,1,5.34,0,5.76,5.76,0,0,1,2,1.44,6.27,6.27,0,0,1,1.2,2.11,8,8,0,0,1,0,5.08,6.26,6.26,0,0,1-1.2,2.11,5.73,5.73,0,0,1-2,1.44A6.33,6.33,0,0,1,122,173.33Zm0-1.42a4.46,4.46,0,0,0,1.94-.4,3.88,3.88,0,0,0,1.4-1.12,5,5,0,0,0,.85-1.66,7.27,7.27,0,0,0,0-4.06,4.93,4.93,0,0,0-.85-1.65,4,4,0,0,0-1.4-1.12,4.77,4.77,0,0,0-3.88,0,4,4,0,0,0-1.4,1.12,4.93,4.93,0,0,0-.85,1.65,7.28,7.28,0,0,0,0,4.06,5,5,0,0,0,.85,1.66,3.87,3.87,0,0,0,1.4,1.12A4.45,4.45,0,0,0,122,171.91Z" fill="#5e5e5e"/><path d="M142.14,170.77,145,160.29h1.71L143,173.1h-1.75L138.06,162l-3.21,11.11H133.1l-3.65-12.81h1.71L134,170.77l3.08-10.48h2Z" fill="#5e5e5e"/><path d="M157.06,160.29v1.44h-3.77V173.1h-1.77V161.73h-3.77v-1.44Z" fill="#5e5e5e"/><path d="M167.34,173.1v-5.75h-6.56v5.75H159V160.29h1.77v5.56h6.56v-5.56h1.77V173.1Z" fill="#5e5e5e"/><path d="M183.74,160.29v1.44H180V173.1h-1.77V161.73h-3.77v-1.44Z" fill="#5e5e5e"/><path d="M185.7,160.29h7.13v1.44h-5.36v4.1h5.13v1.44h-5.13v4.38h5.42v1.44H185.7Z" fill="#5e5e5e"/><path d="M201.45,160.06a10.5,10.5,0,0,1,1.81.16,7.28,7.28,0,0,1,1.58.43l-.29,1.37a9.85,9.85,0,0,0-1.4-.38,7.88,7.88,0,0,0-1.48-.14,5.07,5.07,0,0,0-3.75,1.35,6.17,6.17,0,0,0,0,7.69,5.07,5.07,0,0,0,3.75,1.35,7.88,7.88,0,0,0,1.48-.14,9.69,9.69,0,0,0,1.4-.37l.29,1.36a7.27,7.27,0,0,1-1.58.43,10.61,10.61,0,0,1-1.81.16,7.47,7.47,0,0,1-2.82-.5,5.89,5.89,0,0,1-2.09-1.38,6.07,6.07,0,0,1-1.3-2.1,8,8,0,0,1,0-5.31,6.05,6.05,0,0,1,1.3-2.1,5.89,5.89,0,0,1,2.09-1.38A7.47,7.47,0,0,1,201.45,160.06Z" fill="#5e5e5e"/><path d="M215.56,173.1v-5.75H209v5.75h-1.77V160.29H209v5.56h6.56v-5.56h1.77V173.1Z" fill="#5e5e5e"/><path d="M4.39,179H224.27" fill="none" stroke="#5e5e5e" stroke-miterlimit="10"/><path d="M4.39,155H224.27" fill="none" stroke="#5e5e5e" stroke-linecap="round" stroke-miterlimit="10"/></svg>